<svg width="1600" height="900" viewBox="0 0 1600 900" xmlns="http://www.w3.org/2000/svg">
  <defs>
    <linearGradient id="storm" x1="0" y1="0" x2="0" y2="1">
      <stop offset="0%" stop-color="#0f172a" />
      <stop offset="60%" stop-color="#1e293b" />
      <stop offset="100%" stop-color="#020617" />
    </linearGradient>
  </defs>
  <rect width="1600" height="900" fill="url(#storm)" />
  <g fill="#eab308" fill-opacity="0.6">
    <polygon points="720,160 780,240 740,240 820,360 760,360 820,460 680,320 720,320 640,220 700,220" />
    <polygon points="1080,260 1140,340 1100,340 1180,460 1120,460 1180,560 1040,420 1080,420 1000,320 1060,320" />
  </g>
  <g fill="#475569" fill-opacity="0.9">
    <ellipse cx="520" cy="240" rx="240" ry="90" />
    <ellipse cx="760" cy="260" rx="260" ry="100" />
    <ellipse cx="1020" cy="240" rx="240" ry="90" />
    <ellipse cx="1240" cy="260" rx="260" ry="100" />
  </g>
</svg>
